<svg width="29" height="63" viewBox="0 0 29 63" fill="none" xmlns="http://www.w3.org/2000/svg">
<path fill-rule="evenodd" clip-rule="evenodd" d="M3.40526 2.34967C3.76444 1.93014 4.39571 1.8812 4.81525 2.24038L4.1649 3.00002C4.81525 2.24038 4.81492 2.2401 4.81525 2.24038L4.81917 2.24375L4.82698 2.25049L4.85401 2.27402C4.87705 2.29417 4.91002 2.32322 4.95237 2.36108C5.03706 2.4368 5.1593 2.54779 5.31467 2.6933C5.62539 2.98427 6.06883 3.41349 6.60964 3.97496C7.69091 5.09753 9.16358 6.751 10.7436 8.88753C13.901 13.1568 17.5055 19.3799 19.2531 27.169C20.9255 34.6234 21.0382 42.4894 20.7401 48.4666C20.6143 50.988 20.415 53.1818 20.2261 54.878L25.198 46.0311C25.4686 45.5497 26.0783 45.3787 26.5597 45.6493C27.0412 45.9199 27.2122 46.5295 26.9416 47.011L19.6717 59.9468C19.4922 60.2663 19.1523 60.4619 18.786 60.4568C18.4196 60.4517 18.0853 60.2466 17.9148 59.9223L10.1879 45.2265C9.9309 44.7377 10.1188 44.133 10.6077 43.876C11.0965 43.619 11.7011 43.8069 11.9581 44.2957L18.0854 55.9491C18.102 55.8171 18.1189 55.68 18.1361 55.538C18.3476 53.7903 18.596 51.3059 18.7426 48.367C19.0363 42.4786 18.9185 34.8136 17.3016 27.6068C15.6318 20.1643 12.1802 14.1935 9.13561 10.0767C7.61473 8.02025 6.20004 6.43266 5.16918 5.36243C4.65393 4.8275 4.23511 4.42238 3.94759 4.15311C3.80384 4.0185 3.69297 3.91789 3.61933 3.85205C3.58251 3.81914 3.555 3.79491 3.53736 3.77948L3.51835 3.76294L3.51455 3.75966C3.51443 3.75955 3.51463 3.75972 3.51455 3.75966M3.51455 3.75966C3.51443 3.75955 3.51463 3.75972 3.51455 3.75966ZM3.40526 2.34967C3.04619 2.76909 3.09536 3.40043 3.51455 3.75966Z" fill="black" fill-opacity="0.5"/>
</svg>
