<svg width="290" height="50" viewBox="0 0 290 50" fill="none" xmlns="http://www.w3.org/2000/svg">
<g clip-path="url(#clip0_39_509)">
<path d="M12.33 39.69C11.21 39.69 10.16 39.45 9.18 38.97C8.2 38.47 7.3 37.76 6.48 36.84C5.68 35.9 4.98 34.79 4.38 33.51C4.18 32.97 3.98 32.35 3.78 31.65C3.6 30.93 3.43 30.16 3.27 29.34C3.11 28.5 2.97 27.64 2.85 26.76C2.73 25.88 2.62 25 2.52 24.12C2.44 23.24 2.37 22.38 2.31 21.54C2.27 20.68 2.25 19.89 2.25 19.17C2.25 15.17 2.82 12 3.96 9.66C5.1 7.3 6.9 5.61 9.36 4.59C11.82 3.57 15.03 3.06 18.99 3.06C21.61 3.06 24.11 3.29 26.49 3.75C28.87 4.21 30.99 4.96 32.85 6C34.71 7.02 36.18 8.35 37.26 9.99C38.34 11.63 38.88 13.64 38.88 16.02C38.88 17.8 38.55 19.37 37.89 20.73C37.23 22.09 36.29 23.23 35.07 24.15C33.87 25.05 32.44 25.74 30.78 26.22C29.12 26.7 27.3 26.97 25.32 27.03C24.04 27.07 22.87 27.01 21.81 26.85C20.75 26.69 19.79 26.61 18.93 26.61C18.27 26.61 17.86 26.84 17.7 27.3C17.54 27.76 17.46 28.39 17.46 29.19C17.46 29.45 17.46 29.74 17.46 30.06C17.46 30.38 17.47 30.72 17.49 31.08C17.51 31.42 17.53 31.77 17.55 32.13C17.57 32.49 17.58 32.83 17.58 33.15C17.6 33.45 17.61 33.73 17.61 33.99C17.61 35.87 17.19 37.29 16.35 38.25C15.51 39.21 14.17 39.69 12.33 39.69ZM19.05 19.77C19.79 19.77 20.53 19.72 21.27 19.62C22.01 19.52 22.7 19.37 23.34 19.17C24 18.95 24.58 18.67 25.08 18.33C25.58 17.99 25.97 17.59 26.25 17.13C26.55 16.65 26.7 16.11 26.7 15.51C26.7 14.83 26.57 14.26 26.31 13.8C26.07 13.32 25.74 12.92 25.32 12.6C24.92 12.26 24.47 12 23.97 11.82C23.47 11.62 22.96 11.48 22.44 11.4C21.94 11.3 21.48 11.25 21.06 11.25C20.3 11.25 19.62 11.31 19.02 11.43C18.44 11.55 17.94 11.73 17.52 11.97C17.12 12.21 16.81 12.54 16.59 12.96C16.39 13.36 16.29 13.86 16.29 14.46C16.29 15.14 16.32 15.76 16.38 16.32C16.44 16.88 16.53 17.38 16.65 17.82C16.79 18.24 16.97 18.6 17.19 18.9C17.41 19.18 17.67 19.4 17.97 19.56C18.29 19.7 18.65 19.77 19.05 19.77ZM48.4767 40.14C46.7567 40.14 45.4167 39.83 44.4567 39.21C43.5167 38.61 42.8667 37.72 42.5067 36.54C42.1467 35.36 41.9667 33.91 41.9667 32.19C41.9667 31.57 41.9767 30.89 41.9967 30.15C42.0367 29.41 42.0767 28.66 42.1167 27.9C42.1767 27.12 42.2467 26.35 42.3267 25.59C42.4267 24.81 42.5267 24.06 42.6267 23.34C42.7267 22.62 42.8367 21.96 42.9567 21.36C43.0967 20.74 43.2367 20.2 43.3767 19.74C44.0767 18 45.1067 16.67 46.4667 15.75C47.8467 14.83 49.6167 14.37 51.7767 14.37C53.7767 14.37 55.2467 15.09 56.1867 16.53C57.1267 17.95 57.5967 19.89 57.5967 22.35C57.5967 23.07 57.5767 23.87 57.5367 24.75C57.4967 25.61 57.4267 26.5 57.3267 27.42C57.2467 28.32 57.1367 29.23 56.9967 30.15C56.8767 31.05 56.7267 31.91 56.5467 32.73C56.3667 33.53 56.1667 34.27 55.9467 34.95C55.7467 35.63 55.5167 36.19 55.2567 36.63C54.5367 37.81 53.6167 38.69 52.4967 39.27C51.3967 39.85 50.0567 40.14 48.4767 40.14ZM51.0267 11.25C48.5267 11.25 46.7367 10.84 45.6567 10.02C44.5967 9.2 44.0667 8.26 44.0667 7.2C44.0667 5.82 44.5567 4.65 45.5367 3.69C46.5367 2.71 47.7767 1.97 49.2567 1.47C50.7567 0.969999 52.2567 0.719999 53.7567 0.719999C54.8767 0.719999 55.9067 0.889999 56.8467 1.23C57.7867 1.57 58.5367 2.11 59.0967 2.85C59.6767 3.59 59.9667 4.56 59.9667 5.76C59.9667 7.1 59.5567 8.17 58.7367 8.97C57.9167 9.77 56.8267 10.35 55.4667 10.71C54.1067 11.07 52.6267 11.25 51.0267 11.25ZM82.2881 41.22C79.7681 41.22 77.3781 40.92 75.1181 40.32C72.8781 39.72 70.8881 38.79 69.1481 37.53C67.4081 36.25 66.0381 34.61 65.0381 32.61C64.0581 30.59 63.5681 28.16 63.5681 25.32C63.5681 22.4 63.9981 19.84 64.8581 17.64C65.7181 15.42 66.9781 13.56 68.6381 12.06C70.2981 10.56 72.3181 9.43 74.6981 8.67C77.0781 7.91 79.7881 7.53 82.8281 7.53C85.2481 7.53 87.2381 7.79 88.7981 8.31C90.3781 8.81 91.5481 9.48 92.3081 10.32C93.0881 11.14 93.4781 12.03 93.4781 12.99C93.4781 13.71 93.2881 14.36 92.9081 14.94C92.5481 15.52 92.0781 15.98 91.4981 16.32C90.9181 16.66 90.3081 16.83 89.6681 16.83C89.0881 16.83 88.5281 16.76 87.9881 16.62C87.4481 16.46 86.8281 16.31 86.1281 16.17C85.4281 16.01 84.5281 15.93 83.4281 15.93C82.3681 15.93 81.4081 16.1 80.5481 16.44C79.6881 16.78 78.9381 17.27 78.2981 17.91C77.6581 18.53 77.1581 19.28 76.7981 20.16C76.4581 21.04 76.2881 22.01 76.2881 23.07C76.2881 24.65 76.5681 25.95 77.1281 26.97C77.6881 27.99 78.4681 28.75 79.4681 29.25C80.4881 29.73 81.6981 29.97 83.0981 29.97C84.1781 29.97 85.1881 29.87 86.1281 29.67C87.0681 29.47 87.9281 29.23 88.7081 28.95C89.4881 28.67 90.1781 28.43 90.7781 28.23C91.3781 28.03 91.8781 27.93 92.2781 27.93C93.3781 27.93 94.2381 28.18 94.8581 28.68C95.4981 29.18 95.9481 29.8 96.2081 30.54C96.4681 31.26 96.5981 31.97 96.5981 32.67C96.5981 34.05 96.2381 35.27 95.5181 36.33C94.7981 37.39 93.7881 38.28 92.4881 39C91.2081 39.74 89.6981 40.29 87.9581 40.65C86.2181 41.03 84.3281 41.22 82.2881 41.22ZM109.332 40.26C107.612 40.26 106.142 39.87 104.922 39.09C103.722 38.33 102.802 37.22 102.162 35.76C101.942 35.2 101.742 34.52 101.562 33.72C101.382 32.92 101.232 32.05 101.112 31.11C100.992 30.15 100.892 29.18 100.812 28.2C100.752 27.2 100.712 26.22 100.692 25.26C100.672 24.28 100.662 23.39 100.662 22.59C100.662 19.37 100.942 16.59 101.502 14.25C102.062 11.91 102.882 9.95 103.962 8.37C105.042 6.77 106.362 5.5 107.922 4.56C109.482 3.6 111.252 2.91 113.232 2.49C115.232 2.05 117.412 1.83 119.772 1.83C121.912 1.83 123.982 2.09 125.982 2.61C127.982 3.11 129.782 3.86 131.382 4.86C133.002 5.84 134.282 7.05 135.222 8.49C136.162 9.91 136.632 11.55 136.632 13.41C136.632 14.91 136.392 16.15 135.912 17.13C135.432 18.11 134.782 18.91 133.962 19.53C133.162 20.13 132.292 20.6 131.352 20.94C130.412 21.28 129.472 21.55 128.532 21.75C128.012 21.85 127.592 22 127.272 22.2C126.972 22.38 126.822 22.61 126.822 22.89C126.822 23.11 127.042 23.43 127.482 23.85C127.942 24.27 128.502 24.77 129.162 25.35C129.822 25.91 130.502 26.51 131.202 27.15C131.902 27.77 132.512 28.38 133.032 28.98C133.392 29.38 133.772 29.81 134.172 30.27C134.572 30.73 134.962 31.21 135.342 31.71C135.742 32.19 136.092 32.66 136.392 33.12C136.712 33.56 136.962 33.97 137.142 34.35C137.342 34.71 137.442 35 137.442 35.22C137.442 36.2 137.132 37.03 136.512 37.71C135.892 38.39 135.082 38.9 134.082 39.24C133.102 39.58 132.062 39.75 130.962 39.75C130.042 39.75 129.142 39.59 128.262 39.27C127.382 38.97 126.542 38.54 125.742 37.98C124.942 37.42 124.172 36.74 123.432 35.94C122.692 35.12 121.992 34.2 121.332 33.18C120.512 32.02 119.732 30.98 118.992 30.06C118.272 29.14 117.642 28.41 117.102 27.87C116.582 27.33 116.192 27.06 115.932 27.06C115.792 27.06 115.682 27.12 115.602 27.24C115.522 27.36 115.462 27.56 115.422 27.84C115.402 28.1 115.382 28.44 115.362 28.86C115.362 29.28 115.362 29.79 115.362 30.39C115.362 30.69 115.362 31.06 115.362 31.5C115.382 31.92 115.382 32.37 115.362 32.85C115.362 33.33 115.352 33.8 115.332 34.26C115.332 34.7 115.312 35.12 115.272 35.52C115.252 35.92 115.212 36.24 115.152 36.48C114.852 37.92 114.152 38.91 113.052 39.45C111.952 39.99 110.712 40.26 109.332 40.26ZM117.972 18.18C118.432 18.18 118.952 18.13 119.532 18.03C120.132 17.91 120.722 17.73 121.302 17.49C121.882 17.25 122.422 16.94 122.922 16.56C123.422 16.18 123.812 15.72 124.092 15.18C124.392 14.64 124.542 14.01 124.542 13.29C124.542 12.59 124.382 11.99 124.062 11.49C123.762 10.97 123.342 10.55 122.802 10.23C122.262 9.89 121.662 9.64 121.002 9.48C120.342 9.32 119.672 9.24 118.992 9.24C118.212 9.24 117.572 9.35 117.072 9.57C116.572 9.77 116.172 10.07 115.872 10.47C115.572 10.87 115.332 11.36 115.152 11.94C115.032 12.32 114.922 12.71 114.822 13.11C114.742 13.51 114.682 13.93 114.642 14.37C114.602 14.79 114.582 15.25 114.582 15.75C114.582 16.33 114.712 16.8 114.972 17.16C115.232 17.52 115.612 17.78 116.112 17.94C116.632 18.1 117.252 18.18 117.972 18.18ZM159.619 40.74C157.119 40.74 154.709 40.47 152.389 39.93C150.069 39.39 147.989 38.55 146.149 37.41C144.329 36.25 142.879 34.75 141.799 32.91C140.739 31.05 140.209 28.8 140.209 26.16C140.209 23.26 140.719 20.7 141.739 18.48C142.759 16.24 144.169 14.36 145.969 12.84C147.789 11.32 149.889 10.18 152.269 9.42C154.649 8.64 157.209 8.25 159.949 8.25C162.589 8.25 165.069 8.58 167.389 9.24C169.709 9.88 171.759 10.87 173.539 12.21C175.319 13.53 176.709 15.21 177.709 17.25C178.729 19.29 179.239 21.71 179.239 24.51C179.239 26.75 178.719 28.85 177.679 30.81C176.659 32.77 175.249 34.49 173.449 35.97C171.649 37.45 169.569 38.61 167.209 39.45C164.849 40.31 162.319 40.74 159.619 40.74ZM158.989 29.52C160.249 29.52 161.319 29.34 162.199 28.98C163.079 28.6 163.799 28.09 164.359 27.45C164.939 26.81 165.359 26.11 165.619 25.35C165.899 24.59 166.039 23.82 166.039 23.04C166.039 22.04 165.839 21.19 165.439 20.49C165.039 19.77 164.499 19.19 163.819 18.75C163.159 18.31 162.419 17.99 161.599 17.79C160.779 17.57 159.939 17.46 159.079 17.46C157.899 17.46 156.809 17.7 155.809 18.18C154.809 18.64 154.009 19.34 153.409 20.28C152.809 21.2 152.509 22.35 152.509 23.73C152.509 24.91 152.769 25.94 153.289 26.82C153.809 27.68 154.549 28.35 155.509 28.83C156.489 29.29 157.649 29.52 158.989 29.52ZM197.832 42.78C196.132 42.78 194.462 42.62 192.822 42.3C191.182 42 189.702 41.48 188.382 40.74C187.082 40.02 186.042 39.05 185.262 37.83C184.482 36.61 184.092 35.1 184.092 33.3C184.092 31.52 184.542 30.04 185.442 28.86C186.362 27.68 187.592 26.74 189.132 26.04C190.672 25.34 192.412 24.85 194.352 24.57C196.312 24.27 198.332 24.12 200.412 24.12C200.932 24.12 201.452 24.14 201.972 24.18C202.492 24.2 202.972 24.23 203.412 24.27C203.852 24.29 204.202 24.3 204.462 24.3C204.922 24.3 205.232 24.23 205.392 24.09C205.572 23.93 205.662 23.67 205.662 23.31C205.662 22.93 205.612 22.59 205.512 22.29C205.412 21.99 205.272 21.72 205.092 21.48C204.912 21.24 204.692 21.04 204.432 20.88C203.952 20.54 203.342 20.29 202.602 20.13C201.862 19.97 201.052 19.89 200.172 19.89C199.052 19.89 197.942 20.01 196.842 20.25C195.742 20.49 194.652 20.73 193.572 20.97C192.512 21.21 191.442 21.33 190.362 21.33C188.522 21.33 187.092 21.03 186.072 20.43C185.052 19.81 184.542 18.86 184.542 17.58C184.542 16.38 184.952 15.33 185.772 14.43C186.592 13.51 187.702 12.76 189.102 12.18C190.502 11.58 192.072 11.14 193.812 10.86C195.572 10.56 197.372 10.41 199.212 10.41C203.032 10.41 206.252 10.81 208.872 11.61C211.492 12.41 213.482 13.79 214.842 15.75C216.222 17.69 216.912 20.38 216.912 23.82C216.912 24.58 216.872 25.25 216.792 25.83C216.732 26.41 216.652 26.92 216.552 27.36C216.472 27.78 216.392 28.16 216.312 28.5C216.252 28.84 216.222 29.16 216.222 29.46C216.222 30.02 216.412 30.57 216.792 31.11C217.192 31.65 217.642 32.21 218.142 32.79C218.662 33.37 219.112 34 219.492 34.68C219.872 35.36 220.062 36.13 220.062 36.99C220.062 38.25 219.652 39.18 218.832 39.78C218.032 40.38 217.102 40.68 216.042 40.68C215.202 40.68 214.532 40.47 214.032 40.05C213.532 39.63 213.102 39.21 212.742 38.79C212.382 38.37 211.982 38.16 211.542 38.16C211.222 38.16 210.862 38.26 210.462 38.46C210.082 38.66 209.632 38.94 209.112 39.3C208.492 39.72 207.682 40.2 206.682 40.74C205.702 41.3 204.492 41.78 203.052 42.18C201.612 42.58 199.872 42.78 197.832 42.78ZM198.852 35.4C199.592 35.4 200.322 35.3 201.042 35.1C201.762 34.88 202.422 34.58 203.022 34.2C203.622 33.8 204.102 33.33 204.462 32.79C204.822 32.25 205.002 31.65 205.002 30.99C205.002 30.49 204.842 30.12 204.522 29.88C204.202 29.64 203.732 29.47 203.112 29.37C202.512 29.27 201.772 29.22 200.892 29.22C199.892 29.22 198.932 29.33 198.012 29.55C197.092 29.75 196.332 30.1 195.732 30.6C195.152 31.1 194.862 31.79 194.862 32.67C194.862 33.31 195.032 33.83 195.372 34.23C195.732 34.63 196.212 34.93 196.812 35.13C197.412 35.31 198.092 35.4 198.852 35.4ZM238.056 40.17C236.496 40.17 235.026 40.11 233.646 39.99C232.266 39.89 231.006 39.73 229.866 39.51C228.726 39.29 227.716 39.02 226.836 38.7C225.696 38.26 224.756 37.74 224.016 37.14C223.296 36.54 222.936 35.66 222.936 34.5C222.936 33.2 223.296 32.17 224.016 31.41C224.756 30.65 225.846 30.27 227.286 30.27C228.086 30.27 228.926 30.37 229.806 30.57C230.706 30.77 231.676 30.97 232.716 31.17C233.776 31.37 234.946 31.47 236.226 31.47C237.146 31.47 237.976 31.42 238.716 31.32C239.476 31.2 240.076 30.99 240.516 30.69C240.956 30.39 241.176 29.97 241.176 29.43C241.176 28.91 241.016 28.49 240.696 28.17C240.376 27.85 239.766 27.56 238.866 27.3C237.966 27.04 236.656 26.76 234.936 26.46C232.656 26.06 230.706 25.49 229.086 24.75C227.466 23.99 226.226 23.02 225.366 21.84C224.506 20.66 224.076 19.23 224.076 17.55C224.076 16.01 224.516 14.7 225.396 13.62C226.296 12.54 227.506 11.66 229.026 10.98C230.566 10.3 232.296 9.8 234.216 9.48C236.136 9.16 238.126 9 240.186 9C241.566 9 242.966 9.08 244.386 9.24C245.826 9.4 247.146 9.66 248.346 10.02C249.566 10.38 250.546 10.85 251.286 11.43C252.026 11.99 252.396 12.68 252.396 13.5C252.396 14.54 252.146 15.38 251.646 16.02C251.166 16.66 250.546 17.12 249.786 17.4C249.046 17.66 248.276 17.79 247.476 17.79C246.396 17.79 245.316 17.69 244.236 17.49C243.176 17.27 242.236 17.16 241.416 17.16C240.756 17.16 240.166 17.22 239.646 17.34C239.126 17.46 238.716 17.65 238.416 17.91C238.136 18.15 237.996 18.48 237.996 18.9C237.996 19.52 238.446 20.01 239.346 20.37C240.246 20.71 241.706 21.06 243.726 21.42C245.686 21.76 247.416 22.29 248.916 23.01C250.416 23.71 251.586 24.67 252.426 25.89C253.286 27.09 253.716 28.6 253.716 30.42C253.716 32.08 253.326 33.52 252.546 34.74C251.766 35.96 250.676 36.98 249.276 37.8C247.876 38.6 246.226 39.19 244.326 39.57C242.426 39.97 240.336 40.17 238.056 40.17ZM275.012 39.75C273.312 39.75 271.702 39.52 270.182 39.06C268.662 38.6 267.422 37.85 266.462 36.81C265.502 35.75 264.992 34.32 264.932 32.52C264.912 32.06 264.892 31.56 264.872 31.02C264.872 30.46 264.862 29.89 264.842 29.31C264.842 28.71 264.842 28.12 264.842 27.54C264.842 26.94 264.842 26.35 264.842 25.77C264.842 25.17 264.842 24.6 264.842 24.06C264.842 23.18 264.612 22.61 264.152 22.35C263.692 22.07 263.092 21.9 262.352 21.84C261.952 21.8 261.512 21.76 261.032 21.72C260.572 21.68 260.092 21.64 259.592 21.6C259.112 21.54 258.612 21.49 258.092 21.45C257.052 21.31 256.222 20.87 255.602 20.13C255.002 19.37 254.702 18.32 254.702 16.98C254.702 16.04 254.882 15.32 255.242 14.82C255.602 14.3 256.082 13.92 256.682 13.68C257.302 13.44 257.962 13.24 258.662 13.08C259.542 12.94 260.322 12.81 261.002 12.69C261.702 12.55 262.322 12.42 262.862 12.3C263.422 12.18 263.872 11.99 264.212 11.73C264.572 11.47 264.792 11.01 264.872 10.35C264.952 9.89 265.022 9.43 265.082 8.97C265.142 8.51 265.202 8.06 265.262 7.62C265.342 7.18 265.432 6.79 265.532 6.45C265.932 5.29 266.472 4.46 267.152 3.96C267.832 3.46 268.892 3.21 270.332 3.21C271.472 3.21 272.372 3.35 273.032 3.63C273.712 3.89 274.232 4.31 274.592 4.89C274.972 5.45 275.282 6.2 275.522 7.14C275.602 7.62 275.672 8.04 275.732 8.4C275.792 8.76 275.842 9.1 275.882 9.42C275.942 9.74 275.992 10.06 276.032 10.38C276.072 10.68 276.122 11.02 276.182 11.4C276.262 12 276.512 12.46 276.932 12.78C277.352 13.08 277.862 13.28 278.462 13.38C278.982 13.46 279.482 13.54 279.962 13.62C280.442 13.68 280.912 13.74 281.372 13.8C281.852 13.86 282.312 13.92 282.752 13.98C283.772 14.12 284.692 14.48 285.512 15.06C286.352 15.62 286.772 16.57 286.772 17.91C286.772 19.07 286.432 20.02 285.752 20.76C285.072 21.48 284.212 21.9 283.172 22.02C282.272 22.08 281.402 22.13 280.562 22.17C279.722 22.21 279.042 22.26 278.522 22.32C278.082 22.36 277.682 22.51 277.322 22.77C276.962 23.01 276.742 23.51 276.662 24.27C276.662 24.69 276.652 25.12 276.632 25.56C276.612 26 276.602 26.44 276.602 26.88C276.622 27.32 276.632 27.75 276.632 28.17C276.632 28.59 276.642 29 276.662 29.4C276.682 29.8 276.712 30.17 276.752 30.51C276.812 31.25 277.012 31.79 277.352 32.13C277.692 32.47 278.292 32.64 279.152 32.64C279.772 32.64 280.292 32.52 280.712 32.28C281.152 32.02 281.562 31.78 281.942 31.56C282.342 31.32 282.782 31.2 283.262 31.2C284.062 31.2 284.632 31.41 284.972 31.83C285.332 32.25 285.512 32.87 285.512 33.69C285.512 34.63 285.192 35.48 284.552 36.24C283.912 36.98 283.072 37.61 282.032 38.13C281.012 38.65 279.882 39.05 278.642 39.33C277.422 39.61 276.212 39.75 275.012 39.75Z" fill="url(#paint0_linear_39_509)"/>
<path d="M12.33 40.19C11.21 40.19 10.16 39.95 9.18 39.47C8.2 38.97 7.3 38.26 6.48 37.34C5.68 36.4 4.98 35.29 4.38 34.01C4.18 33.47 3.98 32.85 3.78 32.15C3.6 31.43 3.43 30.66 3.27 29.84C3.11 29 2.97 28.14 2.85 27.26C2.73 26.38 2.62 25.5 2.52 24.62C2.44 23.74 2.37 22.88 2.31 22.04C2.27 21.18 2.25 20.39 2.25 19.67C2.25 15.67 2.82 12.5 3.96 10.16C5.1 7.8 6.9 6.11 9.36 5.09C11.82 4.07 15.03 3.56 18.99 3.56C21.61 3.56 24.11 3.79 26.49 4.25C28.87 4.71 30.99 5.46 32.85 6.5C34.71 7.52 36.18 8.85 37.26 10.49C38.34 12.13 38.88 14.14 38.88 16.52C38.88 18.3 38.55 19.87 37.89 21.23C37.23 22.59 36.29 23.73 35.07 24.65C33.87 25.55 32.44 26.24 30.78 26.72C29.12 27.2 27.3 27.47 25.32 27.53C24.04 27.57 22.87 27.51 21.81 27.35C20.75 27.19 19.79 27.11 18.93 27.11C18.27 27.11 17.86 27.34 17.7 27.8C17.54 28.26 17.46 28.89 17.46 29.69C17.46 29.95 17.46 30.24 17.46 30.56C17.46 30.88 17.47 31.22 17.49 31.58C17.51 31.92 17.53 32.27 17.55 32.63C17.57 32.99 17.58 33.33 17.58 33.65C17.6 33.95 17.61 34.23 17.61 34.49C17.61 36.37 17.19 37.79 16.35 38.75C15.51 39.71 14.17 40.19 12.33 40.19ZM19.05 20.27C19.79 20.27 20.53 20.22 21.27 20.12C22.01 20.02 22.7 19.87 23.34 19.67C24 19.45 24.58 19.17 25.08 18.83C25.58 18.49 25.97 18.09 26.25 17.63C26.55 17.15 26.7 16.61 26.7 16.01C26.7 15.33 26.57 14.76 26.31 14.3C26.07 13.82 25.74 13.42 25.32 13.1C24.92 12.76 24.47 12.5 23.97 12.32C23.47 12.12 22.96 11.98 22.44 11.9C21.94 11.8 21.48 11.75 21.06 11.75C20.3 11.75 19.62 11.81 19.02 11.93C18.44 12.05 17.94 12.23 17.52 12.47C17.12 12.71 16.81 13.04 16.59 13.46C16.39 13.86 16.29 14.36 16.29 14.96C16.29 15.64 16.32 16.26 16.38 16.82C16.44 17.38 16.53 17.88 16.65 18.32C16.79 18.74 16.97 19.1 17.19 19.4C17.41 19.68 17.67 19.9 17.97 20.06C18.29 20.2 18.65 20.27 19.05 20.27ZM48.4767 40.64C46.7567 40.64 45.4167 40.33 44.4567 39.71C43.5167 39.11 42.8667 38.22 42.5067 37.04C42.1467 35.86 41.9667 34.41 41.9667 32.69C41.9667 32.07 41.9767 31.39 41.9967 30.65C42.0367 29.91 42.0767 29.16 42.1167 28.4C42.1767 27.62 42.2467 26.85 42.3267 26.09C42.4267 25.31 42.5267 24.56 42.6267 23.84C42.7267 23.12 42.8367 22.46 42.9567 21.86C43.0967 21.24 43.2367 20.7 43.3767 20.24C44.0767 18.5 45.1067 17.17 46.4667 16.25C47.8467 15.33 49.6167 14.87 51.7767 14.87C53.7767 14.87 55.2467 15.59 56.1867 17.03C57.1267 18.45 57.5967 20.39 57.5967 22.85C57.5967 23.57 57.5767 24.37 57.5367 25.25C57.4967 26.11 57.4267 27 57.3267 27.92C57.2467 28.82 57.1367 29.73 56.9967 30.65C56.8767 31.55 56.7267 32.41 56.5467 33.23C56.3667 34.03 56.1667 34.77 55.9467 35.45C55.7467 36.13 55.5167 36.69 55.2567 37.13C54.5367 38.31 53.6167 39.19 52.4967 39.77C51.3967 40.35 50.0567 40.64 48.4767 40.64ZM51.0267 11.75C48.5267 11.75 46.7367 11.34 45.6567 10.52C44.5967 9.7 44.0667 8.76 44.0667 7.7C44.0667 6.32 44.5567 5.15 45.5367 4.19C46.5367 3.21 47.7767 2.47 49.2567 1.97C50.7567 1.47 52.2567 1.22 53.7567 1.22C54.8767 1.22 55.9067 1.39 56.8467 1.73C57.7867 2.07 58.5367 2.61 59.0967 3.35C59.6767 4.09 59.9667 5.06 59.9667 6.26C59.9667 7.6 59.5567 8.67 58.7367 9.47C57.9167 10.27 56.8267 10.85 55.4667 11.21C54.1067 11.57 52.6267 11.75 51.0267 11.75ZM82.2881 41.72C79.7681 41.72 77.3781 41.42 75.1181 40.82C72.8781 40.22 70.8881 39.29 69.1481 38.03C67.4081 36.75 66.0381 35.11 65.0381 33.11C64.0581 31.09 63.5681 28.66 63.5681 25.82C63.5681 22.9 63.9981 20.34 64.8581 18.14C65.7181 15.92 66.9781 14.06 68.6381 12.56C70.2981 11.06 72.3181 9.93 74.6981 9.17C77.0781 8.41 79.7881 8.03 82.8281 8.03C85.2481 8.03 87.2381 8.29 88.7981 8.81C90.3781 9.31 91.5481 9.98 92.3081 10.82C93.0881 11.64 93.4781 12.53 93.4781 13.49C93.4781 14.21 93.2881 14.86 92.9081 15.44C92.5481 16.02 92.0781 16.48 91.4981 16.82C90.9181 17.16 90.3081 17.33 89.6681 17.33C89.0881 17.33 88.5281 17.26 87.9881 17.12C87.4481 16.96 86.8281 16.81 86.1281 16.67C85.4281 16.51 84.5281 16.43 83.4281 16.43C82.3681 16.43 81.4081 16.6 80.5481 16.94C79.6881 17.28 78.9381 17.77 78.2981 18.41C77.6581 19.03 77.1581 19.78 76.7981 20.66C76.4581 21.54 76.2881 22.51 76.2881 23.57C76.2881 25.15 76.5681 26.45 77.1281 27.47C77.6881 28.49 78.4681 29.25 79.4681 29.75C80.4881 30.23 81.6981 30.47 83.0981 30.47C84.1781 30.47 85.1881 30.37 86.1281 30.17C87.0681 29.97 87.9281 29.73 88.7081 29.45C89.4881 29.17 90.1781 28.93 90.7781 28.73C91.3781 28.53 91.8781 28.43 92.2781 28.43C93.3781 28.43 94.2381 28.68 94.8581 29.18C95.4981 29.68 95.9481 30.3 96.2081 31.04C96.4681 31.76 96.5981 32.47 96.5981 33.17C96.5981 34.55 96.2381 35.77 95.5181 36.83C94.7981 37.89 93.7881 38.78 92.4881 39.5C91.2081 40.24 89.6981 40.79 87.9581 41.15C86.2181 41.53 84.3281 41.72 82.2881 41.72ZM109.332 40.76C107.612 40.76 106.142 40.37 104.922 39.59C103.722 38.83 102.802 37.72 102.162 36.26C101.942 35.7 101.742 35.02 101.562 34.22C101.382 33.42 101.232 32.55 101.112 31.61C100.992 30.65 100.892 29.68 100.812 28.7C100.752 27.7 100.712 26.72 100.692 25.76C100.672 24.78 100.662 23.89 100.662 23.09C100.662 19.87 100.942 17.09 101.502 14.75C102.062 12.41 102.882 10.45 103.962 8.87C105.042 7.27 106.362 6 107.922 5.06C109.482 4.1 111.252 3.41 113.232 2.99C115.232 2.55 117.412 2.33 119.772 2.33C121.912 2.33 123.982 2.59 125.982 3.11C127.982 3.61 129.782 4.36 131.382 5.36C133.002 6.34 134.282 7.55 135.222 8.99C136.162 10.41 136.632 12.05 136.632 13.91C136.632 15.41 136.392 16.65 135.912 17.63C135.432 18.61 134.782 19.41 133.962 20.03C133.162 20.63 132.292 21.1 131.352 21.44C130.412 21.78 129.472 22.05 128.532 22.25C128.012 22.35 127.592 22.5 127.272 22.7C126.972 22.88 126.822 23.11 126.822 23.39C126.822 23.61 127.042 23.93 127.482 24.35C127.942 24.77 128.502 25.27 129.162 25.85C129.822 26.41 130.502 27.01 131.202 27.65C131.902 28.27 132.512 28.88 133.032 29.48C133.392 29.88 133.772 30.31 134.172 30.77C134.572 31.23 134.962 31.71 135.342 32.21C135.742 32.69 136.092 33.16 136.392 33.62C136.712 34.06 136.962 34.47 137.142 34.85C137.342 35.21 137.442 35.5 137.442 35.72C137.442 36.7 137.132 37.53 136.512 38.21C135.892 38.89 135.082 39.4 134.082 39.74C133.102 40.08 132.062 40.25 130.962 40.25C130.042 40.25 129.142 40.09 128.262 39.77C127.382 39.47 126.542 39.04 125.742 38.48C124.942 37.92 124.172 37.24 123.432 36.44C122.692 35.62 121.992 34.7 121.332 33.68C120.512 32.52 119.732 31.48 118.992 30.56C118.272 29.64 117.642 28.91 117.102 28.37C116.582 27.83 116.192 27.56 115.932 27.56C115.792 27.56 115.682 27.62 115.602 27.74C115.522 27.86 115.462 28.06 115.422 28.34C115.402 28.6 115.382 28.94 115.362 29.36C115.362 29.78 115.362 30.29 115.362 30.89C115.362 31.19 115.362 31.56 115.362 32C115.382 32.42 115.382 32.87 115.362 33.35C115.362 33.83 115.352 34.3 115.332 34.76C115.332 35.2 115.312 35.62 115.272 36.02C115.252 36.42 115.212 36.74 115.152 36.98C114.852 38.42 114.152 39.41 113.052 39.95C111.952 40.49 110.712 40.76 109.332 40.76ZM117.972 18.68C118.432 18.68 118.952 18.63 119.532 18.53C120.132 18.41 120.722 18.23 121.302 17.99C121.882 17.75 122.422 17.44 122.922 17.06C123.422 16.68 123.812 16.22 124.092 15.68C124.392 15.14 124.542 14.51 124.542 13.79C124.542 13.09 124.382 12.49 124.062 11.99C123.762 11.47 123.342 11.05 122.802 10.73C122.262 10.39 121.662 10.14 121.002 9.98C120.342 9.82 119.672 9.74 118.992 9.74C118.212 9.74 117.572 9.85 117.072 10.07C116.572 10.27 116.172 10.57 115.872 10.97C115.572 11.37 115.332 11.86 115.152 12.44C115.032 12.82 114.922 13.21 114.822 13.61C114.742 14.01 114.682 14.43 114.642 14.87C114.602 15.29 114.582 15.75 114.582 16.25C114.582 16.83 114.712 17.3 114.972 17.66C115.232 18.02 115.612 18.28 116.112 18.44C116.632 18.6 117.252 18.68 117.972 18.68ZM159.619 41.24C157.119 41.24 154.709 40.97 152.389 40.43C150.069 39.89 147.989 39.05 146.149 37.91C144.329 36.75 142.879 35.25 141.799 33.41C140.739 31.55 140.209 29.3 140.209 26.66C140.209 23.76 140.719 21.2 141.739 18.98C142.759 16.74 144.169 14.86 145.969 13.34C147.789 11.82 149.889 10.68 152.269 9.92C154.649 9.14 157.209 8.75 159.949 8.75C162.589 8.75 165.069 9.08 167.389 9.74C169.709 10.38 171.759 11.37 173.539 12.71C175.319 14.03 176.709 15.71 177.709 17.75C178.729 19.79 179.239 22.21 179.239 25.01C179.239 27.25 178.719 29.35 177.679 31.31C176.659 33.27 175.249 34.99 173.449 36.47C171.649 37.95 169.569 39.11 167.209 39.95C164.849 40.81 162.319 41.24 159.619 41.24ZM158.989 30.02C160.249 30.02 161.319 29.84 162.199 29.48C163.079 29.1 163.799 28.59 164.359 27.95C164.939 27.31 165.359 26.61 165.619 25.85C165.899 25.09 166.039 24.32 166.039 23.54C166.039 22.54 165.839 21.69 165.439 20.99C165.039 20.27 164.499 19.69 163.819 19.25C163.159 18.81 162.419 18.49 161.599 18.29C160.779 18.07 159.939 17.96 159.079 17.96C157.899 17.96 156.809 18.2 155.809 18.68C154.809 19.14 154.009 19.84 153.409 20.78C152.809 21.7 152.509 22.85 152.509 24.23C152.509 25.41 152.769 26.44 153.289 27.32C153.809 28.18 154.549 28.85 155.509 29.33C156.489 29.79 157.649 30.02 158.989 30.02ZM197.832 43.28C196.132 43.28 194.462 43.12 192.822 42.8C191.182 42.5 189.702 41.98 188.382 41.24C187.082 40.52 186.042 39.55 185.262 38.33C184.482 37.11 184.092 35.6 184.092 33.8C184.092 32.02 184.542 30.54 185.442 29.36C186.362 28.18 187.592 27.24 189.132 26.54C190.672 25.84 192.412 25.35 194.352 25.07C196.312 24.77 198.332 24.62 200.412 24.62C200.932 24.62 201.452 24.64 201.972 24.68C202.492 24.7 202.972 24.73 203.412 24.77C203.852 24.79 204.202 24.8 204.462 24.8C204.922 24.8 205.232 24.73 205.392 24.59C205.572 24.43 205.662 24.17 205.662 23.81C205.662 23.43 205.612 23.09 205.512 22.79C205.412 22.49 205.272 22.22 205.092 21.98C204.912 21.74 204.692 21.54 204.432 21.38C203.952 21.04 203.342 20.79 202.602 20.63C201.862 20.47 201.052 20.39 200.172 20.39C199.052 20.39 197.942 20.51 196.842 20.75C195.742 20.99 194.652 21.23 193.572 21.47C192.512 21.71 191.442 21.83 190.362 21.83C188.522 21.83 187.092 21.53 186.072 20.93C185.052 20.31 184.542 19.36 184.542 18.08C184.542 16.88 184.952 15.83 185.772 14.93C186.592 14.01 187.702 13.26 189.102 12.68C190.502 12.08 192.072 11.64 193.812 11.36C195.572 11.06 197.372 10.91 199.212 10.91C203.032 10.91 206.252 11.31 208.872 12.11C211.492 12.91 213.482 14.29 214.842 16.25C216.222 18.19 216.912 20.88 216.912 24.32C216.912 25.08 216.872 25.75 216.792 26.33C216.732 26.91 216.652 27.42 216.552 27.86C216.472 28.28 216.392 28.66 216.312 29C216.252 29.34 216.222 29.66 216.222 29.96C216.222 30.52 216.412 31.07 216.792 31.61C217.192 32.15 217.642 32.71 218.142 33.29C218.662 33.87 219.112 34.5 219.492 35.18C219.872 35.86 220.062 36.63 220.062 37.49C220.062 38.75 219.652 39.68 218.832 40.28C218.032 40.88 217.102 41.18 216.042 41.18C215.202 41.18 214.532 40.97 214.032 40.55C213.532 40.13 213.102 39.71 212.742 39.29C212.382 38.87 211.982 38.66 211.542 38.66C211.222 38.66 210.862 38.76 210.462 38.96C210.082 39.16 209.632 39.44 209.112 39.8C208.492 40.22 207.682 40.7 206.682 41.24C205.702 41.8 204.492 42.28 203.052 42.68C201.612 43.08 199.872 43.28 197.832 43.28ZM198.852 35.9C199.592 35.9 200.322 35.8 201.042 35.6C201.762 35.38 202.422 35.08 203.022 34.7C203.622 34.3 204.102 33.83 204.462 33.29C204.822 32.75 205.002 32.15 205.002 31.49C205.002 30.99 204.842 30.62 204.522 30.38C204.202 30.14 203.732 29.97 203.112 29.87C202.512 29.77 201.772 29.72 200.892 29.72C199.892 29.72 198.932 29.83 198.012 30.05C197.092 30.25 196.332 30.6 195.732 31.1C195.152 31.6 194.862 32.29 194.862 33.17C194.862 33.81 195.032 34.33 195.372 34.73C195.732 35.13 196.212 35.43 196.812 35.63C197.412 35.81 198.092 35.9 198.852 35.9ZM238.056 40.67C236.496 40.67 235.026 40.61 233.646 40.49C232.266 40.39 231.006 40.23 229.866 40.01C228.726 39.79 227.716 39.52 226.836 39.2C225.696 38.76 224.756 38.24 224.016 37.64C223.296 37.04 222.936 36.16 222.936 35C222.936 33.7 223.296 32.67 224.016 31.91C224.756 31.15 225.846 30.77 227.286 30.77C228.086 30.77 228.926 30.87 229.806 31.07C230.706 31.27 231.676 31.47 232.716 31.67C233.776 31.87 234.946 31.97 236.226 31.97C237.146 31.97 237.976 31.92 238.716 31.82C239.476 31.7 240.076 31.49 240.516 31.19C240.956 30.89 241.176 30.47 241.176 29.93C241.176 29.41 241.016 28.99 240.696 28.67C240.376 28.35 239.766 28.06 238.866 27.8C237.966 27.54 236.656 27.26 234.936 26.96C232.656 26.56 230.706 25.99 229.086 25.25C227.466 24.49 226.226 23.52 225.366 22.34C224.506 21.16 224.076 19.73 224.076 18.05C224.076 16.51 224.516 15.2 225.396 14.12C226.296 13.04 227.506 12.16 229.026 11.48C230.566 10.8 232.296 10.3 234.216 9.98C236.136 9.66 238.126 9.5 240.186 9.5C241.566 9.5 242.966 9.58 244.386 9.74C245.826 9.9 247.146 10.16 248.346 10.52C249.566 10.88 250.546 11.35 251.286 11.93C252.026 12.49 252.396 13.18 252.396 14C252.396 15.04 252.146 15.88 251.646 16.52C251.166 17.16 250.546 17.62 249.786 17.9C249.046 18.16 248.276 18.29 247.476 18.29C246.396 18.29 245.316 18.19 244.236 17.99C243.176 17.77 242.236 17.66 241.416 17.66C240.756 17.66 240.166 17.72 239.646 17.84C239.126 17.96 238.716 18.15 238.416 18.41C238.136 18.65 237.996 18.98 237.996 19.4C237.996 20.02 238.446 20.51 239.346 20.87C240.246 21.21 241.706 21.56 243.726 21.92C245.686 22.26 247.416 22.79 248.916 23.51C250.416 24.21 251.586 25.17 252.426 26.39C253.286 27.59 253.716 29.1 253.716 30.92C253.716 32.58 253.326 34.02 252.546 35.24C251.766 36.46 250.676 37.48 249.276 38.3C247.876 39.1 246.226 39.69 244.326 40.07C242.426 40.47 240.336 40.67 238.056 40.67ZM275.012 40.25C273.312 40.25 271.702 40.02 270.182 39.56C268.662 39.1 267.422 38.35 266.462 37.31C265.502 36.25 264.992 34.82 264.932 33.02C264.912 32.56 264.892 32.06 264.872 31.52C264.872 30.96 264.862 30.39 264.842 29.81C264.842 29.21 264.842 28.62 264.842 28.04C264.842 27.44 264.842 26.85 264.842 26.27C264.842 25.67 264.842 25.1 264.842 24.56C264.842 23.68 264.612 23.11 264.152 22.85C263.692 22.57 263.092 22.4 262.352 22.34C261.952 22.3 261.512 22.26 261.032 22.22C260.572 22.18 260.092 22.14 259.592 22.1C259.112 22.04 258.612 21.99 258.092 21.95C257.052 21.81 256.222 21.37 255.602 20.63C255.002 19.87 254.702 18.82 254.702 17.48C254.702 16.54 254.882 15.82 255.242 15.32C255.602 14.8 256.082 14.42 256.682 14.18C257.302 13.94 257.962 13.74 258.662 13.58C259.542 13.44 260.322 13.31 261.002 13.19C261.702 13.05 262.322 12.92 262.862 12.8C263.422 12.68 263.872 12.49 264.212 12.23C264.572 11.97 264.792 11.51 264.872 10.85C264.952 10.39 265.022 9.93 265.082 9.47C265.142 9.01 265.202 8.56 265.262 8.12C265.342 7.68 265.432 7.29 265.532 6.95C265.932 5.79 266.472 4.96 267.152 4.46C267.832 3.96 268.892 3.71 270.332 3.71C271.472 3.71 272.372 3.85 273.032 4.13C273.712 4.39 274.232 4.81 274.592 5.39C274.972 5.95 275.282 6.7 275.522 7.64C275.602 8.12 275.672 8.54 275.732 8.9C275.792 9.26 275.842 9.6 275.882 9.92C275.942 10.24 275.992 10.56 276.032 10.88C276.072 11.18 276.122 11.52 276.182 11.9C276.262 12.5 276.512 12.96 276.932 13.28C277.352 13.58 277.862 13.78 278.462 13.88C278.982 13.96 279.482 14.04 279.962 14.12C280.442 14.18 280.912 14.24 281.372 14.3C281.852 14.36 282.312 14.42 282.752 14.48C283.772 14.62 284.692 14.98 285.512 15.56C286.352 16.12 286.772 17.07 286.772 18.41C286.772 19.57 286.432 20.52 285.752 21.26C285.072 21.98 284.212 22.4 283.172 22.52C282.272 22.58 281.402 22.63 280.562 22.67C279.722 22.71 279.042 22.76 278.522 22.82C278.082 22.86 277.682 23.01 277.322 23.27C276.962 23.51 276.742 24.01 276.662 24.77C276.662 25.19 276.652 25.62 276.632 26.06C276.612 26.5 276.602 26.94 276.602 27.38C276.622 27.82 276.632 28.25 276.632 28.67C276.632 29.09 276.642 29.5 276.662 29.9C276.682 30.3 276.712 30.67 276.752 31.01C276.812 31.75 277.012 32.29 277.352 32.63C277.692 32.97 278.292 33.14 279.152 33.14C279.772 33.14 280.292 33.02 280.712 32.78C281.152 32.52 281.562 32.28 281.942 32.06C282.342 31.82 282.782 31.7 283.262 31.7C284.062 31.7 284.632 31.91 284.972 32.33C285.332 32.75 285.512 33.37 285.512 34.19C285.512 35.13 285.192 35.98 284.552 36.74C283.912 37.48 283.072 38.11 282.032 38.63C281.012 39.15 279.882 39.55 278.642 39.83C277.422 40.11 276.212 40.25 275.012 40.25Z" fill="#F9F5D0"/>
<path d="M12.33 41.69C11.21 41.69 10.16 41.45 9.18 40.97C8.2 40.47 7.3 39.76 6.48 38.84C5.68 37.9 4.98 36.79 4.38 35.51C4.18 34.97 3.98 34.35 3.78 33.65C3.6 32.93 3.43 32.16 3.27 31.34C3.11 30.5 2.97 29.64 2.85 28.76C2.73 27.88 2.62 27 2.52 26.12C2.44 25.24 2.37 24.38 2.31 23.54C2.27 22.68 2.25 21.89 2.25 21.17C2.25 17.17 2.82 14 3.96 11.66C5.1 9.3 6.9 7.61 9.36 6.59C11.82 5.57 15.03 5.06 18.99 5.06C21.61 5.06 24.11 5.29 26.49 5.75C28.87 6.21 30.99 6.96 32.85 8C34.71 9.02 36.18 10.35 37.26 11.99C38.34 13.63 38.88 15.64 38.88 18.02C38.88 19.8 38.55 21.37 37.89 22.73C37.23 24.09 36.29 25.23 35.07 26.15C33.87 27.05 32.44 27.74 30.78 28.22C29.12 28.7 27.3 28.97 25.32 29.03C24.04 29.07 22.87 29.01 21.81 28.85C20.75 28.69 19.79 28.61 18.93 28.61C18.27 28.61 17.86 28.84 17.7 29.3C17.54 29.76 17.46 30.39 17.46 31.19C17.46 31.45 17.46 31.74 17.46 32.06C17.46 32.38 17.47 32.72 17.49 33.08C17.51 33.42 17.53 33.77 17.55 34.13C17.57 34.49 17.58 34.83 17.58 35.15C17.6 35.45 17.61 35.73 17.61 35.99C17.61 37.87 17.19 39.29 16.35 40.25C15.51 41.21 14.17 41.69 12.33 41.69ZM19.05 21.77C19.79 21.77 20.53 21.72 21.27 21.62C22.01 21.52 22.7 21.37 23.34 21.17C24 20.95 24.58 20.67 25.08 20.33C25.58 19.99 25.97 19.59 26.25 19.13C26.55 18.65 26.7 18.11 26.7 17.51C26.7 16.83 26.57 16.26 26.31 15.8C26.07 15.32 25.74 14.92 25.32 14.6C24.92 14.26 24.47 14 23.97 13.82C23.47 13.62 22.96 13.48 22.44 13.4C21.94 13.3 21.48 13.25 21.06 13.25C20.3 13.25 19.62 13.31 19.02 13.43C18.44 13.55 17.94 13.73 17.52 13.97C17.12 14.21 16.81 14.54 16.59 14.96C16.39 15.36 16.29 15.86 16.29 16.46C16.29 17.14 16.32 17.76 16.38 18.32C16.44 18.88 16.53 19.38 16.65 19.82C16.79 20.24 16.97 20.6 17.19 20.9C17.41 21.18 17.67 21.4 17.97 21.56C18.29 21.7 18.65 21.77 19.05 21.77ZM48.4767 42.14C46.7567 42.14 45.4167 41.83 44.4567 41.21C43.5167 40.61 42.8667 39.72 42.5067 38.54C42.1467 37.36 41.9667 35.91 41.9667 34.19C41.9667 33.57 41.9767 32.89 41.9967 32.15C42.0367 31.41 42.0767 30.66 42.1167 29.9C42.1767 29.12 42.2467 28.35 42.3267 27.59C42.4267 26.81 42.5267 26.06 42.6267 25.34C42.7267 24.62 42.8367 23.96 42.9567 23.36C43.0967 22.74 43.2367 22.2 43.3767 21.74C44.0767 20 45.1067 18.67 46.4667 17.75C47.8467 16.83 49.6167 16.37 51.7767 16.37C53.7767 16.37 55.2467 17.09 56.1867 18.53C57.1267 19.95 57.5967 21.89 57.5967 24.35C57.5967 25.07 57.5767 25.87 57.5367 26.75C57.4967 27.61 57.4267 28.5 57.3267 29.42C57.2467 30.32 57.1367 31.23 56.9967 32.15C56.8767 33.05 56.7267 33.91 56.5467 34.73C56.3667 35.53 56.1667 36.27 55.9467 36.95C55.7467 37.63 55.5167 38.19 55.2567 38.63C54.5367 39.81 53.6167 40.69 52.4967 41.27C51.3967 41.85 50.0567 42.14 48.4767 42.14ZM51.0267 13.25C48.5267 13.25 46.7367 12.84 45.6567 12.02C44.5967 11.2 44.0667 10.26 44.0667 9.2C44.0667 7.82 44.5567 6.65 45.5367 5.69C46.5367 4.71 47.7767 3.97 49.2567 3.47C50.7567 2.97 52.2567 2.72 53.7567 2.72C54.8767 2.72 55.9067 2.89 56.8467 3.23C57.7867 3.57 58.5367 4.11 59.0967 4.85C59.6767 5.59 59.9667 6.56 59.9667 7.76C59.9667 9.1 59.5567 10.17 58.7367 10.97C57.9167 11.77 56.8267 12.35 55.4667 12.71C54.1067 13.07 52.6267 13.25 51.0267 13.25ZM82.2881 43.22C79.7681 43.22 77.3781 42.92 75.1181 42.32C72.8781 41.72 70.8881 40.79 69.1481 39.53C67.4081 38.25 66.0381 36.61 65.0381 34.61C64.0581 32.59 63.5681 30.16 63.5681 27.32C63.5681 24.4 63.9981 21.84 64.8581 19.64C65.7181 17.42 66.9781 15.56 68.6381 14.06C70.2981 12.56 72.3181 11.43 74.6981 10.67C77.0781 9.91 79.7881 9.53 82.8281 9.53C85.2481 9.53 87.2381 9.79 88.7981 10.31C90.3781 10.81 91.5481 11.48 92.3081 12.32C93.0881 13.14 93.4781 14.03 93.4781 14.99C93.4781 15.71 93.2881 16.36 92.9081 16.94C92.5481 17.52 92.0781 17.98 91.4981 18.32C90.9181 18.66 90.3081 18.83 89.6681 18.83C89.0881 18.83 88.5281 18.76 87.9881 18.62C87.4481 18.46 86.8281 18.31 86.1281 18.17C85.4281 18.01 84.5281 17.93 83.4281 17.93C82.3681 17.93 81.4081 18.1 80.5481 18.44C79.6881 18.78 78.9381 19.27 78.2981 19.91C77.6581 20.53 77.1581 21.28 76.7981 22.16C76.4581 23.04 76.2881 24.01 76.2881 25.07C76.2881 26.65 76.5681 27.95 77.1281 28.97C77.6881 29.99 78.4681 30.75 79.4681 31.25C80.4881 31.73 81.6981 31.97 83.0981 31.97C84.1781 31.97 85.1881 31.87 86.1281 31.67C87.0681 31.47 87.9281 31.23 88.7081 30.95C89.4881 30.67 90.1781 30.43 90.7781 30.23C91.3781 30.03 91.8781 29.93 92.2781 29.93C93.3781 29.93 94.2381 30.18 94.8581 30.68C95.4981 31.18 95.9481 31.8 96.2081 32.54C96.4681 33.26 96.5981 33.97 96.5981 34.67C96.5981 36.05 96.2381 37.27 95.5181 38.33C94.7981 39.39 93.7881 40.28 92.4881 41C91.2081 41.74 89.6981 42.29 87.9581 42.65C86.2181 43.03 84.3281 43.22 82.2881 43.22ZM109.332 42.26C107.612 42.26 106.142 41.87 104.922 41.09C103.722 40.33 102.802 39.22 102.162 37.76C101.942 37.2 101.742 36.52 101.562 35.72C101.382 34.92 101.232 34.05 101.112 33.11C100.992 32.15 100.892 31.18 100.812 30.2C100.752 29.2 100.712 28.22 100.692 27.26C100.672 26.28 100.662 25.39 100.662 24.59C100.662 21.37 100.942 18.59 101.502 16.25C102.062 13.91 102.882 11.95 103.962 10.37C105.042 8.77 106.362 7.5 107.922 6.56C109.482 5.6 111.252 4.91 113.232 4.49C115.232 4.05 117.412 3.83 119.772 3.83C121.912 3.83 123.982 4.09 125.982 4.61C127.982 5.11 129.782 5.86 131.382 6.86C133.002 7.84 134.282 9.05 135.222 10.49C136.162 11.91 136.632 13.55 136.632 15.41C136.632 16.91 136.392 18.15 135.912 19.13C135.432 20.11 134.782 20.91 133.962 21.53C133.162 22.13 132.292 22.6 131.352 22.94C130.412 23.28 129.472 23.55 128.532 23.75C128.012 23.85 127.592 24 127.272 24.2C126.972 24.38 126.822 24.61 126.822 24.89C126.822 25.11 127.042 25.43 127.482 25.85C127.942 26.27 128.502 26.77 129.162 27.35C129.822 27.91 130.502 28.51 131.202 29.15C131.902 29.77 132.512 30.38 133.032 30.98C133.392 31.38 133.772 31.81 134.172 32.27C134.572 32.73 134.962 33.21 135.342 33.71C135.742 34.19 136.092 34.66 136.392 35.12C136.712 35.56 136.962 35.97 137.142 36.35C137.342 36.71 137.442 37 137.442 37.22C137.442 38.2 137.132 39.03 136.512 39.71C135.892 40.39 135.082 40.9 134.082 41.24C133.102 41.58 132.062 41.75 130.962 41.75C130.042 41.75 129.142 41.59 128.262 41.27C127.382 40.97 126.542 40.54 125.742 39.98C124.942 39.42 124.172 38.74 123.432 37.94C122.692 37.12 121.992 36.2 121.332 35.18C120.512 34.02 119.732 32.98 118.992 32.06C118.272 31.14 117.642 30.41 117.102 29.87C116.582 29.33 116.192 29.06 115.932 29.06C115.792 29.06 115.682 29.12 115.602 29.24C115.522 29.36 115.462 29.56 115.422 29.84C115.402 30.1 115.382 30.44 115.362 30.86C115.362 31.28 115.362 31.79 115.362 32.39C115.362 32.69 115.362 33.06 115.362 33.5C115.382 33.92 115.382 34.37 115.362 34.85C115.362 35.33 115.352 35.8 115.332 36.26C115.332 36.7 115.312 37.12 115.272 37.52C115.252 37.92 115.212 38.24 115.152 38.48C114.852 39.92 114.152 40.91 113.052 41.45C111.952 41.99 110.712 42.26 109.332 42.26ZM117.972 20.18C118.432 20.18 118.952 20.13 119.532 20.03C120.132 19.91 120.722 19.73 121.302 19.49C121.882 19.25 122.422 18.94 122.922 18.56C123.422 18.18 123.812 17.72 124.092 17.18C124.392 16.64 124.542 16.01 124.542 15.29C124.542 14.59 124.382 13.99 124.062 13.49C123.762 12.97 123.342 12.55 122.802 12.23C122.262 11.89 121.662 11.64 121.002 11.48C120.342 11.32 119.672 11.24 118.992 11.24C118.212 11.24 117.572 11.35 117.072 11.57C116.572 11.77 116.172 12.07 115.872 12.47C115.572 12.87 115.332 13.36 115.152 13.94C115.032 14.32 114.922 14.71 114.822 15.11C114.742 15.51 114.682 15.93 114.642 16.37C114.602 16.79 114.582 17.25 114.582 17.75C114.582 18.33 114.712 18.8 114.972 19.16C115.232 19.52 115.612 19.78 116.112 19.94C116.632 20.1 117.252 20.18 117.972 20.18ZM159.619 42.74C157.119 42.74 154.709 42.47 152.389 41.93C150.069 41.39 147.989 40.55 146.149 39.41C144.329 38.25 142.879 36.75 141.799 34.91C140.739 33.05 140.209 30.8 140.209 28.16C140.209 25.26 140.719 22.7 141.739 20.48C142.759 18.24 144.169 16.36 145.969 14.84C147.789 13.32 149.889 12.18 152.269 11.42C154.649 10.64 157.209 10.25 159.949 10.25C162.589 10.25 165.069 10.58 167.389 11.24C169.709 11.88 171.759 12.87 173.539 14.21C175.319 15.53 176.709 17.21 177.709 19.25C178.729 21.29 179.239 23.71 179.239 26.51C179.239 28.75 178.719 30.85 177.679 32.81C176.659 34.77 175.249 36.49 173.449 37.97C171.649 39.45 169.569 40.61 167.209 41.45C164.849 42.31 162.319 42.74 159.619 42.74ZM158.989 31.52C160.249 31.52 161.319 31.34 162.199 30.98C163.079 30.6 163.799 30.09 164.359 29.45C164.939 28.81 165.359 28.11 165.619 27.35C165.899 26.59 166.039 25.82 166.039 25.04C166.039 24.04 165.839 23.19 165.439 22.49C165.039 21.77 164.499 21.19 163.819 20.75C163.159 20.31 162.419 19.99 161.599 19.79C160.779 19.57 159.939 19.46 159.079 19.46C157.899 19.46 156.809 19.7 155.809 20.18C154.809 20.64 154.009 21.34 153.409 22.28C152.809 23.2 152.509 24.35 152.509 25.73C152.509 26.91 152.769 27.94 153.289 28.82C153.809 29.68 154.549 30.35 155.509 30.83C156.489 31.29 157.649 31.52 158.989 31.52ZM197.832 44.78C196.132 44.78 194.462 44.62 192.822 44.3C191.182 44 189.702 43.48 188.382 42.74C187.082 42.02 186.042 41.05 185.262 39.83C184.482 38.61 184.092 37.1 184.092 35.3C184.092 33.52 184.542 32.04 185.442 30.86C186.362 29.68 187.592 28.74 189.132 28.04C190.672 27.34 192.412 26.85 194.352 26.57C196.312 26.27 198.332 26.12 200.412 26.12C200.932 26.12 201.452 26.14 201.972 26.18C202.492 26.2 202.972 26.23 203.412 26.27C203.852 26.29 204.202 26.3 204.462 26.3C204.922 26.3 205.232 26.23 205.392 26.09C205.572 25.93 205.662 25.67 205.662 25.31C205.662 24.93 205.612 24.59 205.512 24.29C205.412 23.99 205.272 23.72 205.092 23.48C204.912 23.24 204.692 23.04 204.432 22.88C203.952 22.54 203.342 22.29 202.602 22.13C201.862 21.97 201.052 21.89 200.172 21.89C199.052 21.89 197.942 22.01 196.842 22.25C195.742 22.49 194.652 22.73 193.572 22.97C192.512 23.21 191.442 23.33 190.362 23.33C188.522 23.33 187.092 23.03 186.072 22.43C185.052 21.81 184.542 20.86 184.542 19.58C184.542 18.38 184.952 17.33 185.772 16.43C186.592 15.51 187.702 14.76 189.102 14.18C190.502 13.58 192.072 13.14 193.812 12.86C195.572 12.56 197.372 12.41 199.212 12.41C203.032 12.41 206.252 12.81 208.872 13.61C211.492 14.41 213.482 15.79 214.842 17.75C216.222 19.69 216.912 22.38 216.912 25.82C216.912 26.58 216.872 27.25 216.792 27.83C216.732 28.41 216.652 28.92 216.552 29.36C216.472 29.78 216.392 30.16 216.312 30.5C216.252 30.84 216.222 31.16 216.222 31.46C216.222 32.02 216.412 32.57 216.792 33.11C217.192 33.65 217.642 34.21 218.142 34.79C218.662 35.37 219.112 36 219.492 36.68C219.872 37.36 220.062 38.13 220.062 38.99C220.062 40.25 219.652 41.18 218.832 41.78C218.032 42.38 217.102 42.68 216.042 42.68C215.202 42.68 214.532 42.47 214.032 42.05C213.532 41.63 213.102 41.21 212.742 40.79C212.382 40.37 211.982 40.16 211.542 40.16C211.222 40.16 210.862 40.26 210.462 40.46C210.082 40.66 209.632 40.94 209.112 41.3C208.492 41.72 207.682 42.2 206.682 42.74C205.702 43.3 204.492 43.78 203.052 44.18C201.612 44.58 199.872 44.78 197.832 44.78ZM198.852 37.4C199.592 37.4 200.322 37.3 201.042 37.1C201.762 36.88 202.422 36.58 203.022 36.2C203.622 35.8 204.102 35.33 204.462 34.79C204.822 34.25 205.002 33.65 205.002 32.99C205.002 32.49 204.842 32.12 204.522 31.88C204.202 31.64 203.732 31.47 203.112 31.37C202.512 31.27 201.772 31.22 200.892 31.22C199.892 31.22 198.932 31.33 198.012 31.55C197.092 31.75 196.332 32.1 195.732 32.6C195.152 33.1 194.862 33.79 194.862 34.67C194.862 35.31 195.032 35.83 195.372 36.23C195.732 36.63 196.212 36.93 196.812 37.13C197.412 37.31 198.092 37.4 198.852 37.4ZM238.056 42.17C236.496 42.17 235.026 42.11 233.646 41.99C232.266 41.89 231.006 41.73 229.866 41.51C228.726 41.29 227.716 41.02 226.836 40.7C225.696 40.26 224.756 39.74 224.016 39.14C223.296 38.54 222.936 37.66 222.936 36.5C222.936 35.2 223.296 34.17 224.016 33.41C224.756 32.65 225.846 32.27 227.286 32.27C228.086 32.27 228.926 32.37 229.806 32.57C230.706 32.77 231.676 32.97 232.716 33.17C233.776 33.37 234.946 33.47 236.226 33.47C237.146 33.47 237.976 33.42 238.716 33.32C239.476 33.2 240.076 32.99 240.516 32.69C240.956 32.39 241.176 31.97 241.176 31.43C241.176 30.91 241.016 30.49 240.696 30.17C240.376 29.85 239.766 29.56 238.866 29.3C237.966 29.04 236.656 28.76 234.936 28.46C232.656 28.06 230.706 27.49 229.086 26.75C227.466 25.99 226.226 25.02 225.366 23.84C224.506 22.66 224.076 21.23 224.076 19.55C224.076 18.01 224.516 16.7 225.396 15.62C226.296 14.54 227.506 13.66 229.026 12.98C230.566 12.3 232.296 11.8 234.216 11.48C236.136 11.16 238.126 11 240.186 11C241.566 11 242.966 11.08 244.386 11.24C245.826 11.4 247.146 11.66 248.346 12.02C249.566 12.38 250.546 12.85 251.286 13.43C252.026 13.99 252.396 14.68 252.396 15.5C252.396 16.54 252.146 17.38 251.646 18.02C251.166 18.66 250.546 19.12 249.786 19.4C249.046 19.66 248.276 19.79 247.476 19.79C246.396 19.79 245.316 19.69 244.236 19.49C243.176 19.27 242.236 19.16 241.416 19.16C240.756 19.16 240.166 19.22 239.646 19.34C239.126 19.46 238.716 19.65 238.416 19.91C238.136 20.15 237.996 20.48 237.996 20.9C237.996 21.52 238.446 22.01 239.346 22.37C240.246 22.71 241.706 23.06 243.726 23.42C245.686 23.76 247.416 24.29 248.916 25.01C250.416 25.71 251.586 26.67 252.426 27.89C253.286 29.09 253.716 30.6 253.716 32.42C253.716 34.08 253.326 35.52 252.546 36.74C251.766 37.96 250.676 38.98 249.276 39.8C247.876 40.6 246.226 41.19 244.326 41.57C242.426 41.97 240.336 42.17 238.056 42.17ZM275.012 41.75C273.312 41.75 271.702 41.52 270.182 41.06C268.662 40.6 267.422 39.85 266.462 38.81C265.502 37.75 264.992 36.32 264.932 34.52C264.912 34.06 264.892 33.56 264.872 33.02C264.872 32.46 264.862 31.89 264.842 31.31C264.842 30.71 264.842 30.12 264.842 29.54C264.842 28.94 264.842 28.35 264.842 27.77C264.842 27.17 264.842 26.6 264.842 26.06C264.842 25.18 264.612 24.61 264.152 24.35C263.692 24.07 263.092 23.9 262.352 23.84C261.952 23.8 261.512 23.76 261.032 23.72C260.572 23.68 260.092 23.64 259.592 23.6C259.112 23.54 258.612 23.49 258.092 23.45C257.052 23.31 256.222 22.87 255.602 22.13C255.002 21.37 254.702 20.32 254.702 18.98C254.702 18.04 254.882 17.32 255.242 16.82C255.602 16.3 256.082 15.92 256.682 15.68C257.302 15.44 257.962 15.24 258.662 15.08C259.542 14.94 260.322 14.81 261.002 14.69C261.702 14.55 262.322 14.42 262.862 14.3C263.422 14.18 263.872 13.99 264.212 13.73C264.572 13.47 264.792 13.01 264.872 12.35C264.952 11.89 265.022 11.43 265.082 10.97C265.142 10.51 265.202 10.06 265.262 9.62C265.342 9.18 265.432 8.79 265.532 8.45C265.932 7.29 266.472 6.46 267.152 5.96C267.832 5.46 268.892 5.21 270.332 5.21C271.472 5.21 272.372 5.35 273.032 5.63C273.712 5.89 274.232 6.31 274.592 6.89C274.972 7.45 275.282 8.2 275.522 9.14C275.602 9.62 275.672 10.04 275.732 10.4C275.792 10.76 275.842 11.1 275.882 11.42C275.942 11.74 275.992 12.06 276.032 12.38C276.072 12.68 276.122 13.02 276.182 13.4C276.262 14 276.512 14.46 276.932 14.78C277.352 15.08 277.862 15.28 278.462 15.38C278.982 15.46 279.482 15.54 279.962 15.62C280.442 15.68 280.912 15.74 281.372 15.8C281.852 15.86 282.312 15.92 282.752 15.98C283.772 16.12 284.692 16.48 285.512 17.06C286.352 17.62 286.772 18.57 286.772 19.91C286.772 21.07 286.432 22.02 285.752 22.76C285.072 23.48 284.212 23.9 283.172 24.02C282.272 24.08 281.402 24.13 280.562 24.17C279.722 24.21 279.042 24.26 278.522 24.32C278.082 24.36 277.682 24.51 277.322 24.77C276.962 25.01 276.742 25.51 276.662 26.27C276.662 26.69 276.652 27.12 276.632 27.56C276.612 28 276.602 28.44 276.602 28.88C276.622 29.32 276.632 29.75 276.632 30.17C276.632 30.59 276.642 31 276.662 31.4C276.682 31.8 276.712 32.17 276.752 32.51C276.812 33.25 277.012 33.79 277.352 34.13C277.692 34.47 278.292 34.64 279.152 34.64C279.772 34.64 280.292 34.52 280.712 34.28C281.152 34.02 281.562 33.78 281.942 33.56C282.342 33.32 282.782 33.2 283.262 33.2C284.062 33.2 284.632 33.41 284.972 33.83C285.332 34.25 285.512 34.87 285.512 35.69C285.512 36.63 285.192 37.48 284.552 38.24C283.912 38.98 283.072 39.61 282.032 40.13C281.012 40.65 279.882 41.05 278.642 41.33C277.422 41.61 276.212 41.75 275.012 41.75Z" fill="url(#paint1_linear_39_509)"/>
</g>
<defs>
<linearGradient id="paint0_linear_39_509" x1="112" y1="-54.5" x2="234.5" y2="115.5" gradientUnits="userSpaceOnUse">
<stop stop-color="#1C333F"/>
<stop offset="1" stop-color="#000512"/>
</linearGradient>
<linearGradient id="paint1_linear_39_509" x1="112" y1="-52.5" x2="234.5" y2="117.5" gradientUnits="userSpaceOnUse">
<stop stop-color="#1C333F"/>
<stop offset="1" stop-color="#000512"/>
</linearGradient>
<clipPath id="clip0_39_509">
<rect width="290" height="50" fill="white"/>
</clipPath>
</defs>
</svg>
