<svg width="100" height="100" viewBox="0 0 100 100" fill="none" xmlns="http://www.w3.org/2000/svg">
<g clip-path="url(#clip0_40_525)">
<circle cx="50" cy="50" r="50" fill="url(#paint0_linear_40_525)"/>
<circle cx="50" cy="50" r="49.5" fill="url(#paint1_linear_40_525)"/>
<circle cx="50" cy="50" r="48" fill="url(#paint2_linear_40_525)"/>
<path d="M69.0821 53.682L41.082 71.682C40.7799 71.8764 40.431 71.9858 40.072 71.9987C39.7131 72.0116 39.3572 71.9277 39.0419 71.7556C38.7266 71.5835 38.4634 71.3297 38.2801 71.0208C38.0968 70.7118 38 70.3593 38 70V34C38 33.6407 38.0968 33.2882 38.2801 32.9793C38.4634 32.6703 38.7266 32.4165 39.0419 32.2444C39.3572 32.0723 39.7131 31.9884 40.072 32.0013C40.431 32.0142 40.7799 32.1236 41.082 32.318L69.0821 50.318C69.3636 50.4991 69.5952 50.748 69.7556 51.0419C69.916 51.3358 70 51.6652 70 52C70 52.3348 69.916 52.6642 69.7556 52.9581C69.5952 53.252 69.3636 53.5009 69.0821 53.682Z" fill="url(#paint3_linear_40_525)"/>
<path fill-rule="evenodd" clip-rule="evenodd" d="M41.082 71.682L69.0821 53.682C69.3636 53.5009 69.5952 53.252 69.7556 52.9581C69.916 52.6642 70 52.3348 70 52C70 51.6652 69.916 51.3358 69.7556 51.0419C69.5952 50.748 69.3636 50.4991 69.0821 50.318L41.082 32.318C40.7799 32.1236 40.431 32.0142 40.072 32.0013C39.7131 31.9884 39.3572 32.0723 39.0419 32.2444C38.7266 32.4165 38.4634 32.6703 38.2801 32.9793C38.0968 33.2882 38 33.6407 38 34V70C38 70.3593 38.0968 70.7118 38.2801 71.0208C38.4634 71.3297 38.7266 71.5835 39.0419 71.7556C39.3572 71.9277 39.7131 72.0116 40.072 71.9987C40.431 71.9858 40.7799 71.8764 41.082 71.682ZM39 34V70C39 70.1796 39.0484 70.3559 39.14 70.5104C39.2317 70.6648 39.3633 70.7918 39.521 70.8778C39.6786 70.9638 39.8565 71.0058 40.036 70.9994C40.2155 70.9929 40.39 70.9382 40.541 70.841L68.541 52.841C68.6818 52.7504 68.7976 52.626 68.8778 52.479C68.958 52.3321 69 52.1674 69 52C69 51.8326 68.958 51.6679 68.8778 51.521C68.7976 51.374 68.6818 51.2496 68.541 51.159L40.5412 33.1591C40.3902 33.062 40.2155 33.0071 40.036 33.0006C39.8565 32.9942 39.6786 33.0362 39.521 33.1222C39.3633 33.2083 39.2317 33.3352 39.14 33.4896C39.0484 33.6441 39 33.8204 39 34C39 34 39 34 39 34Z" fill="url(#paint4_linear_40_525)"/>
<path fill-rule="evenodd" clip-rule="evenodd" d="M41.082 71.682L69.0821 53.682C69.3636 53.5009 69.5952 53.252 69.7556 52.9581C69.916 52.6642 70 52.3348 70 52C70 51.6652 69.916 51.3358 69.7556 51.0419C69.5952 50.748 69.3636 50.4991 69.0821 50.318L41.082 32.318C40.7799 32.1236 40.431 32.0142 40.072 32.0013C39.7131 31.9884 39.3572 32.0723 39.0419 32.2444C38.7266 32.4165 38.4634 32.6703 38.2801 32.9793C38.0968 33.2882 38 33.6407 38 34V70C38 70.3593 38.0968 70.7118 38.2801 71.0208C38.4634 71.3297 38.7266 71.5835 39.0419 71.7556C39.3572 71.9277 39.7131 72.0116 40.072 71.9987C40.431 71.9858 40.7799 71.8764 41.082 71.682ZM39 34V70C39 70.1796 39.0484 70.3559 39.14 70.5104C39.2317 70.6648 39.3633 70.7918 39.521 70.8778C39.6786 70.9638 39.8565 71.0058 40.036 70.9994C40.2155 70.9929 40.39 70.9382 40.541 70.841L68.541 52.841C68.6818 52.7504 68.7976 52.626 68.8778 52.479C68.958 52.3321 69 52.1674 69 52C69 51.8326 68.958 51.6679 68.8778 51.521C68.7976 51.374 68.6818 51.2496 68.541 51.159L40.5412 33.1591C40.3902 33.062 40.2155 33.0071 40.036 33.0006C39.8565 32.9942 39.6786 33.0362 39.521 33.1222C39.3633 33.2083 39.2317 33.3352 39.14 33.4896C39.0484 33.6441 39 33.8204 39 34C39 34 39 34 39 34Z" fill="url(#paint5_linear_40_525)"/>
</g>
<defs>
<linearGradient id="paint0_linear_40_525" x1="38.6207" y1="-102.83" x2="154.744" y2="-73.3786" gradientUnits="userSpaceOnUse">
<stop stop-color="#1C333F"/>
<stop offset="1" stop-color="#000512"/>
</linearGradient>
<linearGradient id="paint1_linear_40_525" x1="50" y1="0.5" x2="50" y2="99.5" gradientUnits="userSpaceOnUse">
<stop stop-color="#FEF6CD"/>
<stop offset="1" stop-color="#0A0417"/>
</linearGradient>
<linearGradient id="paint2_linear_40_525" x1="50" y1="-12.5" x2="50" y2="111" gradientUnits="userSpaceOnUse">
<stop stop-color="#596155"/>
<stop offset="1" stop-color="#01152C"/>
</linearGradient>
<linearGradient id="paint3_linear_40_525" x1="53.8755" y1="13.4705" x2="87.4687" y2="41.2243" gradientUnits="userSpaceOnUse">
<stop stop-color="#FBDB78"/>
<stop offset="1" stop-color="#FBB778"/>
</linearGradient>
<linearGradient id="paint4_linear_40_525" x1="60.5" y1="39" x2="56.5" y2="48.5" gradientUnits="userSpaceOnUse">
<stop/>
<stop offset="1" stop-opacity="0"/>
</linearGradient>
<linearGradient id="paint5_linear_40_525" x1="31.5" y1="60" x2="41.5" y2="61.5" gradientUnits="userSpaceOnUse">
<stop/>
<stop offset="1" stop-opacity="0"/>
</linearGradient>
<clipPath id="clip0_40_525">
<rect width="100" height="100" fill="white"/>
</clipPath>
</defs>
</svg>
